<svg width="50" height="50" viewBox="0 0 50 50" fill="none" xmlns="http://www.w3.org/2000/svg">
<circle cx="25" cy="25" r="25" fill="#333333"/>
<path d="M26.2 32.43C25.6 31.38 25 31.38 24.07 32.13L23.89 32.34C23.62 32.79 23.29 33.24 23.08 33.72L22.3 35.28C22.18 35.52 22.03 35.7 21.85 35.88C21.67 36.03 21.49 36.12 21.25 36.12L18.91 36.3C18.61 36.33 18.34 36.27 18.04 36.21C17.59 36.09 17.41 35.67 17.08 35.4C17.02 35.13 17.02 34.83 17.14 34.56C17.38 34.08 17.62 33.6 17.89 33.12C18.31 32.46 18.82 31.8 19.21 31.11C19.57 30.48 20.08 29.91 20.38 29.22C20.47 29.04 20.59 28.89 20.71 28.71C21.28 27.9 21.52 27 21.4 26.01C21.34 25.56 21.34 25.11 21.25 24.66C21.13 24.06 20.89 23.52 20.56 23.01C19.84 21.93 19.09 20.85 18.4 19.77C17.92 19.02 17.41 18.27 17.08 17.46C16.96 17.16 16.9 16.89 16.9 16.59C16.93 16.26 17.11 16.02 17.41 15.87L17.65 15.75C18.79 15.45 19.96 15.42 21.13 15.57C21.4 15.6 21.64 15.72 21.82 15.96C21.97 16.17 22.15 16.38 22.27 16.62C22.54 17.07 22.75 17.58 22.99 18.06C23.05 18.21 23.11 18.36 23.2 18.45C23.65 18.99 23.89 19.62 24.22 20.19C24.31 20.43 24.46 20.64 24.64 20.79C24.85 21 25.12 21.03 25.36 20.91C25.63 20.79 25.81 20.61 25.96 20.37C26.38 19.65 26.83 18.96 27.16 18.21C27.46 17.49 27.85 16.8 28.3 16.14C28.63 15.66 29.14 15.45 29.71 15.36C29.8 15.33 29.89 15.33 29.98 15.33L32.53 15.48C32.68 15.48 32.8 15.51 32.92 15.57C33.4 15.75 33.55 16.02 33.43 16.5C33.28 17.1 33.01 17.64 32.68 18.15C32.44 18.48 32.29 18.84 32.08 19.2C31.72 19.89 31.36 20.58 30.94 21.24C30.58 21.84 30.28 22.47 29.95 23.07C29.74 23.49 29.53 23.91 29.23 24.3C28.93 24.69 28.81 25.17 28.78 25.68C28.75 26.04 28.78 26.4 28.78 26.76C28.78 27.12 28.87 27.51 29.08 27.84C29.29 28.11 29.44 28.41 29.62 28.68C30.07 29.34 30.43 30.03 30.82 30.69C31.51 31.86 32.08 33.06 32.8 34.2C32.92 34.41 33.04 34.59 33.13 34.8C33.22 34.98 33.28 35.16 33.25 35.37C33.19 35.73 33.01 36.12 32.38 36.15C31.9 36.15 31.42 36.18 30.91 36.18V36.21H29.56C29.2 36.21 28.9 36.06 28.6 35.79C28.06 35.28 27.64 34.68 27.28 34.05C27.1 33.72 26.89 33.42 26.65 33.15C26.47 32.94 26.32 32.67 26.2 32.43Z" fill="white"/>
</svg>
