<svg width="32" height="32" viewBox="0 0 32 32" fill="none" xmlns="http://www.w3.org/2000/svg">
<circle cx="16" cy="16" r="16" fill="#333333"/>
<path d="M13.864 14.408C14.088 14.776 14.168 15.192 14.184 15.608C14.2 16.104 14.168 16.584 13.976 17.048C13.928 17.144 13.896 17.24 13.848 17.32C13.448 17.912 12.984 18.456 12.312 18.776C12.216 18.84 12.104 18.872 11.976 18.904C11.416 19.016 10.856 19.048 10.28 19.064C9.8 19.08 9.384 18.92 9.032 18.616C8.968 18.568 8.904 18.504 8.824 18.472C8.664 18.408 8.552 18.296 8.424 18.168C8.12 17.896 7.928 17.56 7.736 17.192C7.496 16.728 7.448 16.28 7.528 15.8C7.528 15.752 7.544 15.704 7.544 15.656C7.544 15.112 7.736 14.632 8.056 14.2C8.072 14.184 8.072 14.152 8.088 14.136C8.392 13.816 8.344 13.432 8.264 13.048C8.248 12.936 8.184 12.84 8.104 12.744C7.592 12.136 7.512 11.416 7.512 10.664C7.496 9.784 8.28 8.68 8.968 8.328C9.192 8.2 9.416 8.088 9.64 7.976C9.944 7.832 10.264 7.768 10.6 7.8C10.856 7.832 11.096 7.864 11.352 7.896C11.672 7.928 11.976 8.04 12.296 8.104C12.52 8.168 12.696 8.296 12.872 8.44C13.16 8.68 13.4 8.952 13.576 9.304C13.72 9.592 13.752 9.88 13.768 10.2C13.768 10.36 13.768 10.504 13.768 10.664C13.768 10.664 13.768 10.664 13.752 10.664C13.752 10.872 13.752 11.064 13.72 11.272C13.688 11.608 13.64 11.944 13.496 12.248C13.368 12.488 13.336 12.76 13.272 13.032C13.224 13.24 13.256 13.432 13.384 13.608C13.56 13.864 13.688 14.152 13.864 14.408ZM10.68 9.88C10.168 9.976 9.832 10.264 9.848 10.84C9.848 10.968 9.848 11.096 10.024 11.128C10.104 11.144 10.152 11.24 10.184 11.304C10.216 11.368 10.248 11.448 10.28 11.512C10.312 11.608 10.376 11.656 10.488 11.688C10.616 11.736 10.76 11.752 10.904 11.736C11.144 11.704 11.368 11.576 11.48 11.352C11.576 11.16 11.64 10.936 11.624 10.632C11.608 10.472 11.576 10.248 11.448 10.056C11.4 10.008 11.368 9.96 11.304 9.944C11.096 9.896 10.888 9.848 10.68 9.88ZM11.144 16.6C11.512 16.44 11.784 16.008 11.8 15.544C11.8 15.304 11.672 15.048 11.528 14.824C11.48 14.744 11.4 14.696 11.32 14.712C11.144 14.76 11 14.68 10.84 14.632C10.616 14.568 10.264 14.696 10.152 14.904C10.008 15.16 9.864 15.448 9.864 15.768C9.848 15.88 9.88 15.976 9.944 16.072C10.088 16.296 10.296 16.456 10.536 16.568C10.728 16.664 10.936 16.696 11.144 16.6Z" fill="white"/>
</svg>
